<?xml version="1.0" standalone="no"?>
<!DOCTYPE svg PUBLIC "-//W3C//DTD SVG 20010904//EN" "http://www.w3.org/TR/2001/REC-SVG-20010904/DTD/svg10.dtd">
<!-- Created using Krita: http://krita.org -->
<svg xmlns="http://www.w3.org/2000/svg" 
    xmlns:xlink="http://www.w3.org/1999/xlink"
    xmlns:krita="http://krita.org/namespaces/svg/krita"
    xmlns:sodipodi="http://sodipodi.sourceforge.net/DTD/sodipodi-0.dtd"
    width="737.28pt"
    height="737.28pt"
    viewBox="0 0 737.28 737.28">
<defs/>
<path id="shape0" transform="matrix(0.999999960263572 0 0 0.999999960263572 107.75772383308 52.656388716701)" fill="#7fd6f1" fill-rule="evenodd" stroke="#000000" stroke-width="5.3784" stroke-linecap="square" stroke-linejoin="bevel" d="M54.0623 15.9236C25.7105 28.8098 -7.61611 88.2957 1.548 142.906C5.62093 184.963 14.6989 206.668 9.42651 249.25C-8.44794 347.712 27.453 405.966 92.4023 415.344C122.975 424.079 184.971 417.897 216.128 406.567C319.096 369.124 274.836 280.189 269.076 211.066C264.754 159.199 284.11 140.578 265.6 85.0469C242.96 12.8172 184.355 -1.33726 141.859 0.199117C128.376 -0.481935 85.2313 -0.343941 52.2623 16.4636"/><ellipse id="shape1" transform="matrix(0.999999960263572 0 0 0.999999960263572 133.199994707108 141.119994392395)" rx="55.8" ry="53.64" cx="55.8" cy="53.64" fill="#fbfbfb" fill-rule="evenodd" stroke="#000000" stroke-width="5.3784" stroke-linecap="square" stroke-linejoin="bevel"/><ellipse id="shape2" transform="matrix(0.999999960263572 0 0 0.999999960263572 291.599988412858 136.079994592667)" rx="53.28" ry="54.72" cx="53.28" cy="54.72" fill="#ffffff" fill-rule="evenodd" stroke="#000000" stroke-width="5.3784" stroke-linecap="square" stroke-linejoin="bevel"/><path id="shape3" transform="matrix(0.999999960263572 0 0 0.999999960263572 232.282603035994 235.992512837555)" fill="#f8e8d2" fill-rule="evenodd" stroke="#000000" stroke-width="5.3784" stroke-linecap="square" stroke-linejoin="bevel" d="M42.0914 29.3846C52.3172 33.0727 72.4255 41.4865 73.1875 24.6753C73.9075 13.937 65.9688 10.7789 59.3174 5.9275C31.1234 -15.0665 -22.5901 25.5788 10.3574 36.8875C23.5745 40.2623 32.1867 28.6932 39.164 28.8755"/><ellipse id="shape4" transform="matrix(0.999999960263572 0 0 0.999999960263572 257.358575071941 227.519990959168)" rx="15.6807073507741" ry="9.72" cx="15.6807073507741" cy="9.72" fill="#000000" fill-rule="evenodd" stroke="#000000" stroke-width="5.3784" stroke-linecap="square" stroke-linejoin="bevel"/><circle id="shape5" transform="matrix(0.999999960263572 0 0 0.999999960263572 167.225291080991 169.559993238243)" r="14.04" cx="14.04" cy="14.04" fill="#000000" fill-rule="evenodd" stroke="#000000" stroke-width="5.3784" stroke-linecap="square" stroke-linejoin="bevel"/><circle id="shape6" transform="matrix(0.999999960263572 0 0 0.999999960263572 342.385570961887 167.127344099196)" r="13.68" cx="13.68" cy="13.68" fill="#000000" fill-rule="evenodd" stroke="#000000" stroke-width="5.3784" stroke-linecap="square" stroke-linejoin="bevel"/><path id="shape7" transform="matrix(0.999999960263572 0 0 0.999999960263572 254.596404673468 265.160708110671)" fill="#ffffff" fill-rule="evenodd" stroke="#000000" stroke-width="3.9384" stroke-linecap="square" stroke-linejoin="bevel" d="M1.61373 11.8252C14.9833 26.9537 32.2444 12.212 32.1237 11.7352C31.2751 10.3248 33.1719 6.05484 30.9736 4.20929C27.171 2.50476 20.4942 -0.245453 16.7866 0.0255311C13.1752 -0.481725 -0.490543 6.70738 0.0135916 9.33929"/><path id="shape8" transform="matrix(0.999999960263572 0 0 0.999999960263572 188.460002674604 316.503953762239)" fill="#f8e8d2" fill-rule="evenodd" stroke="#000000" stroke-width="3.9384" stroke-linecap="square" stroke-linejoin="bevel" d="M0 26.036C5.80953 -31.3346 60.6053 22.7602 53.82 31.256C44.9645 45.7271 7.56 40.5228 0.9 28.556"/><path id="shape9" transform="matrix(0.999999960263572 0 0 0.999999960263572 126.295440889786 456.120013510078)" fill="#f8e8d2" fill-rule="evenodd" stroke="#000000" stroke-width="3.9384" stroke-linecap="square" stroke-linejoin="bevel" d="M42.2222 1.83062C46.0406 3.41234 41.6308 1.07998 40.0245 1.07998C34.5557 -1.92533 -15.8669 33.4726 5.05672 49.9422C27.5513 64.9386 59.1106 53.9879 81.7845 29.16C84.5644 26.8947 89.7485 18.5843 88.2645 16.65C86.1186 13.5378 79.5812 13.233 74.5845 11.16C62.278 7.62211 50.3692 4.38441 34.6245 0"/><path id="shape10" transform="matrix(0.999999960263572 0 0 0.999999960263572 314.640009419374 440.803598871043)" fill="#f8e8d2" fill-rule="evenodd" stroke="#000000" stroke-width="4.32" stroke-linecap="square" stroke-linejoin="bevel" d="M0 22.8764C22.4125 13.5436 31.9516 7.64828 42.84 0.376386C44.019 -0.802633 47.5991 1.13596 48.24 1.45639C63.5581 6.97205 98.537 24.1601 92.16 43.7564C76.3149 70.8586 6.84 51.0332 0.36 25.7564"/><path id="shape11" transform="matrix(0.999999960263572 0 0 0.999999960263572 117.373346068113 33.0925951398453)" fill="#83d9f3" fill-rule="evenodd" stroke="#000000" stroke-width="4.6584" stroke-linecap="square" stroke-linejoin="bevel" d="M53.9445 30.8016C53.1021 33.0943 46.6884 17.2787 33.8344 6.36396C30.663 2.66618 22.5866 0.703322 19.07 0C-17.8319 1.88068 8.87338 56.6768 16.2698 59.3121C17.177 61.3868 23.1116 52.9612 32.8161 42.7658C41.1013 36.5724 48.1685 33.0891 53.4354 31.3107"/><path id="shape12" transform="matrix(0.999999960263572 0 0 0.999999960263572 300.88805734844 24.093220362762)" fill="#7fd6f1" fill-rule="evenodd" stroke="#000000" stroke-width="4.6584" stroke-linecap="square" stroke-linejoin="bevel" d="M0 33.6915C5.24567 16.5832 17.9401 3.00971 25.7104 0.853505C39.62 -3.32988 55.1561 8.22741 49.3843 27.5821C46.0209 37.2458 39.171 51.547 35.1034 55.1207C31.8909 53.3092 12.3853 38.0852 1.94462 35.6957"/><path id="shape0" transform="translate(344.16002399763, 167.760011674212)" fill="none" stroke="#afafaf" stroke-width="3.6" stroke-linecap="square" stroke-linejoin="bevel" d="M8.64 0L1.44 6.48L0 13.68C0 13.68 2.88 9.12 8.64 0Z"/><path id="shape1" transform="translate(169.920011927732, 171.36001197132)" fill="none" stroke="#afafaf" stroke-width="3.6" stroke-linecap="square" stroke-linejoin="bevel" d="M8.28 0L2.52 5.4L0 13.32C0.24 13.32 3 8.88 8.28 0Z"/><path id="shape2" transform="translate(102.370750820815, 304.451896523982)" fill="#72282b" fill-rule="evenodd" stroke="#000000" stroke-width="3.6" stroke-linecap="square" stroke-linejoin="bevel" d="M6.07115 0C1.78153 32.2649 -10.2301 77.754 19.3082 106.405C152.369 140.96 222.377 121.737 280.994 109.46C305.378 63.002 282.96 28.2724 282.012 0.509117C251.968 8.14587 211.989 15.7826 173.061 23.4194C157.311 22.2265 101.647 14.4201 6.07115 0Z"/><path id="shape3" transform="translate(100.998362613064, 257.104022257124)" fill="#6b2629" fill-rule="evenodd" stroke="#000000" stroke-width="3.6" stroke-linecap="square" stroke-linejoin="bevel" d="M171.379 69.2399C114.528 60.5849 31.8172 59.7948 3.87972 45.3114C0.639146 37.8551 -6.81449 16.5783 15.0803 0C1.56069 6.36033 53.6603 29.4403 171.379 69.2399Z"/><path id="shape4" transform="translate(274.414000378639, 260.667844515516)" fill="#6b2629" fill-rule="evenodd" stroke="#000000" stroke-width="3.6" stroke-linecap="square" stroke-linejoin="bevel" d="M0 66.6943C71.3925 32.8386 80.9265 14.2966 103.351 0C115.432 21.9202 113.269 36.0227 110.987 41.7476C85.4588 54.892 48.463 63.2076 0 66.6943Z"/><path id="shape5" transform="translate(203.646753527747, 368.64)" fill="none" stroke="#000000" stroke-width="3.6" stroke-linecap="square" stroke-linejoin="bevel" d="M13.7462 0C9.30012 11.7983 9.32227 21.3624 0 35.5988C6.17346 26.0172 10.7555 14.1509 13.7462 0Z"/><path id="shape6" transform="translate(300.378961453427, 368.64)" fill="none" stroke="#000000" stroke-width="3.6" stroke-linecap="square" stroke-linejoin="bevel" d="M0 0C3.90273 9.8298 2.22096 19.6596 12.2188 29.4894C8.02386 28.1485 3.95092 18.3187 0 0Z"/><path id="shape7" transform="translate(207.210571714483, 363.509455047028)" fill="none" stroke="#000000" stroke-width="3.6" stroke-linecap="square" stroke-linejoin="bevel" d="M0 0L7.12764 11.7097C5.76999 9.30756 3.39411 5.40433 0 0Z"/><path id="shape8" transform="translate(190.409714548443, 394.05646807619)" fill="none" stroke="#000000" stroke-width="3.6" stroke-linecap="square" stroke-linejoin="bevel" d="M0 0L14.2553 5.09117C14.2553 5.76999 9.50352 4.07294 0 0Z"/><path id="shape9" transform="translate(301.906312104885, 362.491221279389)" fill="none" stroke="#000000" stroke-width="3.6" stroke-linecap="square" stroke-linejoin="bevel" d="M9.1641 0L0 11.7097C0.678823 12.3885 3.73352 8.48528 9.1641 0Z"/><path id="shape10" transform="translate(310.561299129814, 385.401481051261)" fill="none" stroke="#000000" stroke-width="3.6" stroke-linecap="square" stroke-linejoin="bevel" d="M21.3829 0L0 9.67322C5.05637 9.11165 12.184 5.88724 21.3829 0Z"/><path id="shape11" transform="translate(222.484078229063, 410.34820835841)" fill="none" stroke="#000000" stroke-width="3.6" stroke-linecap="square" stroke-linejoin="miter" stroke-miterlimit="2" d="M76.3675 0C55.4731 6.09957 34.1831 11.6849 0 0.509117"/><path id="shape12" transform="translate(191.427948316082, 303.433662756343)" fill="none" stroke="#000000" stroke-width="3.6" stroke-linecap="square" stroke-linejoin="miter" stroke-miterlimit="2" d="M0 0C79.8656 16.694 59.336 16.7051 85.5316 24.4376"/><path id="shape13" transform="translate(281.032519868291, 282.050753635929)" fill="none" stroke="#000000" stroke-width="3.6" stroke-linecap="square" stroke-linejoin="miter" stroke-miterlimit="2" d="M84.0043 0C59.3478 4.7295 28.2684 28.7278 0 44.2932"/>
</svg>
